<svg xmlns="http://www.w3.org/2000/svg" viewBox="0 0 800 600" role="img" aria-labelledby="title"><title>Wireless mechanical keyboard</title><rect width="800" height="600" fill="#fef3c7"/><rect x="105" y="175" width="590" height="250" rx="28" fill="#1e293b"/><g fill="#fbbf24"><rect x="140" y="210" width="58" height="38" rx="7"/><rect x="210" y="210" width="58" height="38" rx="7"/><rect x="280" y="210" width="58" height="38" rx="7"/><rect x="350" y="210" width="58" height="38" rx="7"/><rect x="420" y="210" width="58" height="38" rx="7"/><rect x="490" y="210" width="58" height="38" rx="7"/><rect x="560" y="210" width="95" height="38" rx="7"/><rect x="140" y="265" width="85" height="38" rx="7"/><rect x="237" y="265" width="58" height="38" rx="7"/><rect x="307" y="265" width="58" height="38" rx="7"/><rect x="377" y="265" width="58" height="38" rx="7"/><rect x="447" y="265" width="58" height="38" rx="7"/><rect x="517" y="265" width="138" height="38" rx="7"/><rect x="140" y="320" width="115" height="38" rx="7"/><rect x="267" y="320" width="58" height="38" rx="7"/><rect x="337" y="320" width="58" height="38" rx="7"/><rect x="407" y="320" width="58" height="38" rx="7"/><rect x="477" y="320" width="178" height="38" rx="7"/></g><text x="400" y="510" text-anchor="middle" font-family="Arial,sans-serif" font-size="30" font-weight="700" fill="#92400e">MECHANICAL SERIES</text></svg>
